<svg width="18" height="17" viewBox="0 0 18 17" fill="none" xmlns="http://www.w3.org/2000/svg">
<path d="M15.1068 5.94115C14.363 2.66865 11.5084 1.19531 9.00092 1.19531C9.00092 1.19531 9.00092 1.19531 8.99384 1.19531C6.49342 1.19531 3.63176 2.66156 2.88801 5.93406C2.05926 9.58906 4.29759 12.6845 6.32342 14.6324C7.07426 15.3549 8.03759 16.2587 9.00092 16.2587C9.96426 16.2587 10.9276 15.3549 11.6713 14.6324C13.6972 12.6845 15.9355 9.59614 15.1068 5.94115ZM9.00092 9.4899C7.76842 9.4899 6.76967 8.49115 6.76967 7.25865C6.76967 6.02615 7.76842 5.0274 9.00092 5.0274C10.2334 5.0274 11.2322 6.02615 11.2322 7.25865C11.2322 8.49115 10.2334 9.4899 9.00092 9.4899Z" fill="#FF4931"/>
</svg>
